<svg xmlns="http://www.w3.org/2000/svg" version="1.1" viewBox="-5.0 -10.0 110.0 135.0">
 <path d="m80.645 91.465c-5.3828 2.2773-11.297 3.5352-17.5 3.5352-24.836 0-45-20.164-45-45s20.164-45 45-45c6.207 0 12.121 1.2617 17.5 3.5352 0.73828 0.3125 1.2148 1.0352 1.2148 1.8359 0 0.80078-0.47656 1.5234-1.2148 1.832-14.727 6.2305-25.066 20.816-25.066 37.797s10.344 31.566 25.066 37.797c0.73828 0.3125 1.2148 1.0312 1.2148 1.832 0 0.80078-0.47656 1.5234-1.2148 1.8359z" fill-rule="evenodd"/>
<text x="0.0" y="117.5" font-size="5.0" font-weight="bold" font-family="Arbeit Regular, Helvetica, Arial-Unicode, Arial, Sans-serif" fill="#000000">Created by Zach Bogart</text><text x="0.0" y="122.5" font-size="5.0" font-weight="bold" font-family="Arbeit Regular, Helvetica, Arial-Unicode, Arial, Sans-serif" fill="#000000">from Noun Project</text></svg>